<svg width="60" height="61" viewBox="0 0 60 61" fill="none" xmlns="http://www.w3.org/2000/svg">
<g clip-path="url(#clip0_1_169)">
<path d="M59.9879 48.0354C59.9879 49.9336 59.9657 51.8318 59.9982 53.73C60.0136 54.5921 59.6801 55.1161 58.8814 55.4524C55.312 56.9597 51.7547 58.4926 48.1956 60.0255C47.944 60.14 47.6703 60.1982 47.3938 60.1962C47.1173 60.1941 46.8446 60.1318 46.5948 60.0135C43.0385 58.4784 39.4777 56.9534 35.9124 55.4387C35.1462 55.1161 34.8024 54.6194 34.8058 53.7761C34.8275 49.9364 34.8275 46.0979 34.8058 42.2605C34.8058 41.5026 35.1068 41.0332 35.7772 40.7003C39.4201 38.892 43.0562 37.0712 46.6854 35.2379C46.9062 35.1128 47.1558 35.047 47.4097 35.047C47.6636 35.047 47.9132 35.1128 48.134 35.2379C51.7461 37.0587 55.3639 38.8704 58.9874 40.673C59.7074 41.0298 60.0136 41.5419 59.9982 42.3459C59.9674 44.239 59.9879 46.1372 59.9879 48.0354ZM46.0782 56.8778C46.0782 53.8529 46.0885 50.9544 46.0577 48.0559C46.0577 47.8698 45.7824 47.6069 45.5754 47.5148C43.0613 46.4103 40.5369 45.3298 38.0143 44.2475C37.8518 44.1775 37.6808 44.1332 37.4584 44.0563C37.4584 47.0487 37.4584 49.9473 37.4756 52.8458C37.4756 53.0267 37.703 53.2879 37.8894 53.3715C39.3449 54.0236 40.8174 54.6433 42.2849 55.2697C43.5128 55.7921 44.7425 56.3127 46.0782 56.8778ZM57.3456 44.029C54.5681 45.2239 51.9171 46.3728 49.2508 47.4857C48.8113 47.6701 48.7121 47.9125 48.7138 48.3392C48.7309 50.9595 48.7138 53.5815 48.724 56.2018C48.724 56.4032 48.7463 56.6029 48.7634 56.8675C51.5785 55.6624 54.3166 54.4999 57.0411 53.305C57.2002 53.235 57.3284 52.9106 57.3319 52.7007C57.3575 51.2941 57.3456 49.8875 57.3456 48.4809V44.029ZM55.4642 41.9448C55.3753 41.8744 55.2822 41.8094 55.1855 41.7502C52.7124 40.5126 50.2411 39.2681 47.756 38.0528C47.635 38.0057 47.5058 37.9833 47.376 37.9869C47.2462 37.9904 47.1184 38.0197 47.0001 38.0732C44.5732 39.2681 42.16 40.4801 39.7434 41.6938C39.6176 41.7704 39.4976 41.856 39.3842 41.9499C41.9736 43.0594 44.4945 44.1451 47.024 45.2103C47.2526 45.3013 47.5063 45.3074 47.7389 45.2273C50.2889 44.1605 52.8287 43.068 55.4625 41.9448H55.4642Z" fill="#707986"/>
<path d="M2.83213 57.5828H35.4711C35.7259 57.5828 35.9842 57.5828 36.2373 57.5998C36.5627 57.6259 36.8667 57.7722 37.0899 58.01C37.313 58.2479 37.4393 58.5602 37.444 58.8861C37.4487 59.2119 37.3315 59.5278 37.1153 59.7719C36.8991 60.0161 36.5995 60.171 36.2749 60.2065C36.0628 60.2252 35.8498 60.2321 35.637 60.2269H1.84188C0.365906 60.2269 -0.0223199 59.8326 -8.63298e-05 58.3714C0.215409 44.3448 10.1709 32.3018 23.9438 29.5006C30.1515 28.1902 36.617 28.9128 42.3806 31.561C42.8112 31.7695 43.1645 32.109 43.3897 32.5305C43.6308 33.0068 43.4478 33.5394 43.01 33.9098C42.5722 34.2802 42.0539 34.2802 41.5101 34.0805C39.8887 33.4984 38.293 32.8071 36.6289 32.3923C21.6093 28.6368 6.69907 37.9794 3.50598 53.1087C3.2084 54.546 3.07499 56.0038 2.83213 57.5828Z" fill="#707986"/>
<path d="M43.6086 13.8694C43.5982 16.5549 42.7907 19.177 41.2881 21.4047C39.7855 23.6324 37.6553 25.3657 35.1664 26.3858C32.6775 27.406 29.9415 27.6671 27.304 27.1363C24.6665 26.6055 22.2458 25.3065 20.3474 23.4035C18.449 21.5004 17.1583 19.0786 16.638 16.4438C16.1178 13.809 16.3914 11.0794 17.4244 8.59978C18.4574 6.12012 20.2034 4.00157 22.4419 2.51167C24.6804 1.02176 27.3111 0.22731 30.0017 0.228639C31.7934 0.229524 33.5672 0.58339 35.2216 1.26995C36.876 1.95652 38.3783 2.96227 39.6425 4.22954C40.9066 5.49681 41.9077 7.00068 42.5883 8.6549C43.2689 10.3091 43.6156 12.0812 43.6086 13.8694ZM30.0085 2.87793C27.0937 2.86888 24.2947 4.01588 22.2272 6.06663C20.1597 8.11737 18.9931 10.9039 18.9841 13.8131C18.975 16.7223 20.1242 19.516 22.1788 21.5796C24.2335 23.6431 27.0253 24.8075 29.9401 24.8165C35.9979 24.8643 40.9286 19.9703 40.9594 13.8797C40.9696 12.4387 40.694 11.0099 40.1486 9.67568C39.6032 8.34144 38.7987 7.12808 37.7814 6.10548C36.7642 5.08288 35.5543 4.27124 34.2214 3.71732C32.8886 3.16339 31.4591 2.87812 30.0154 2.87793H30.0085Z" fill="#707986"/>
</g>
<defs>
<clipPath id="clip0_1_169">
<rect width="60" height="60" fill="white" transform="translate(0 0.228638)"/>
</clipPath>
</defs>
</svg>
