<svg xmlns="http://www.w3.org/2000/svg" width="53" height="61" fill="none" viewBox="0 0 53 61"><g clip-path="url(#clip0_1_179)"><path fill="#A84599" d="M31.3609 0.228638C32.0266 0.36145 32.7031 0.453637 33.3563 0.633325C36.8781 1.60832 38.8 4.08645 39.6547 7.50833C40.3906 10.4552 40.2594 13.4318 39.8375 16.4146C39.8289 16.492 39.8148 16.5688 39.7953 16.6443C39.5906 17.3583 39.7094 17.8943 40.2797 18.4943C41.3313 19.6036 41.4781 21.0099 40.8391 22.4161C40.2 23.8224 39.0469 24.5302 37.5125 24.6036C37.1828 24.6193 36.8531 24.6036 36.4938 24.6036C36.4047 25.0943 36.3375 25.5552 36.2344 26.0099C35.8494 27.6297 35.0864 29.1354 34.0078 30.4036C33.8329 30.621 33.7302 30.8876 33.7141 31.1661C33.6828 32.3958 33.7141 33.6271 33.6922 34.8568C33.6775 34.9983 33.7087 35.1409 33.7813 35.2633C33.8539 35.3857 33.964 35.4815 34.0953 35.5364C35.0172 36.0411 35.9703 36.5115 36.825 37.1146C38.9922 38.6396 41.4859 39.1911 44.0031 39.7255C45.4453 40.038 46.9156 40.2802 48.2094 41.0708C50.8563 42.6865 52.3234 45.0458 52.3922 48.1443C52.475 51.7943 52.4063 55.4474 52.425 59.099C52.425 59.6115 52.1797 59.9286 51.8313 60.2239H0.59531C0.12656 59.8927 -0.00468936 59.4427 -1.85526e-06 58.8661C0.0218731 55.4505 -7.1081e-07 52.0333 0.0109368 48.6177C0.0109368 44.3083 2.62656 41.0411 6.82187 40.0865C8.60468 39.6802 10.3906 39.2833 12.1688 38.8583C12.564 38.7602 12.944 38.6089 13.2984 38.4083C14.9625 37.4708 16.6109 36.5115 18.275 35.5771C18.5875 35.3974 18.7438 35.2083 18.7438 34.8099C18.7109 33.5818 18.7438 32.3505 18.7234 31.1208C18.7307 30.9131 18.6704 30.7086 18.5516 30.538C17.1312 28.9373 16.2386 26.9377 15.9953 24.8115C15.9798 24.7564 15.9566 24.7038 15.9266 24.6552C15.3438 24.6083 14.7531 24.6224 14.1906 24.499C13.5915 24.3727 13.0328 24.1005 12.5641 23.7065C12.0955 23.3124 11.7314 22.8088 11.5041 22.2402C11.2769 21.6717 11.1936 21.0558 11.2615 20.4473C11.3295 19.8388 11.5467 19.2565 11.8938 18.7521C12.0678 18.4825 12.1635 18.1698 12.1703 17.849C12.1906 14.9786 12.1406 12.1083 12.2047 9.23958C12.2154 8.16998 12.3801 7.10751 12.6937 6.08489C13.6312 3.21145 16.6797 2.44739 18.7641 2.63957C19.3012 2.70661 19.8467 2.64171 20.3531 2.45051C23.025 1.40208 25.7578 0.575511 28.6344 0.309886C28.7296 0.292229 28.8228 0.265009 28.9125 0.228638H31.3609ZM43.9922 58.313H50.5266C50.5266 54.7974 50.6094 51.3224 50.5 47.8443C50.4125 45.0927 48.3922 42.7505 45.7266 42.063C43.8813 41.5943 42.0109 41.2068 40.1609 40.7427C39.7438 40.638 39.5359 40.7583 39.2766 41.0552C37.4141 43.2099 35.5359 45.3505 33.6625 47.4943C33.1109 48.1193 32.7766 48.1818 32.0375 47.7646C31.5859 47.5099 31.1375 47.2505 30.6438 46.9693C30.175 48.1443 29.7063 49.2552 29.2875 50.3849C29.1915 50.6673 29.1959 50.9741 29.3 51.2536C30.2578 53.474 31.2578 55.674 32.2188 57.8911C32.375 58.2568 32.5734 58.3599 32.9578 58.3599C35.8219 58.3427 38.6875 58.3505 41.5516 58.3505H42.1172V54.0974C42.1172 53.9599 42.1172 53.824 42.1172 53.6865C42.1547 53.1255 42.5203 52.749 43.0281 52.7333C43.5594 52.7208 43.9734 53.113 43.9797 53.7036C44.0031 55.2286 43.9922 56.7458 43.9922 58.313ZM21.8047 47.0286C21.7516 47.035 21.6993 47.0466 21.6484 47.063C21.2568 47.2818 20.8661 47.501 20.4766 47.7208C19.6203 48.2052 19.35 48.1583 18.7203 47.438C16.8453 45.2911 14.9703 43.1521 13.1063 40.9974C12.8656 40.7193 12.6594 40.6661 12.3094 40.7521C10.6078 41.1661 8.89843 41.549 7.19218 41.9411C3.91093 42.6958 1.89843 45.2068 1.89218 48.5755C1.89218 51.6411 1.89218 54.7062 1.89218 57.7708V58.324H8.43281V57.7286C8.43281 56.4599 8.43281 55.1911 8.43281 53.9224C8.43281 53.174 8.76874 52.749 9.34999 52.738C9.93124 52.7271 10.2984 53.1661 10.3016 53.9458C10.3016 54.6302 10.3016 55.313 10.3016 55.9958V58.2943C10.3588 58.3191 10.4185 58.3379 10.4797 58.3505C13.5391 58.3505 16.5984 58.3615 19.6578 58.3427C19.7602 58.3225 19.8566 58.2792 19.9397 58.2161C20.0229 58.153 20.0905 58.0718 20.1375 57.9786C21.1594 55.7255 22.1687 53.4615 23.1594 51.1974C23.2266 51.0411 23.3156 50.838 23.2562 50.7036C22.7875 49.4661 22.2891 48.2443 21.8016 47.0286H21.8047ZM17.8234 14.013C17.8083 14.0676 17.7994 14.1236 17.7969 14.1802C17.7969 17.4974 17.7312 20.8177 17.8203 24.1333C17.9328 28.3615 21.5547 31.924 25.775 32.1021C30.6672 32.3021 34.6188 28.5271 34.6359 23.6193C34.6484 20.4568 34.6359 17.2958 34.6359 14.1333C34.6359 13.9646 34.6203 13.7958 34.6094 13.5896C32.9906 13.9333 31.4063 14.2411 29.8359 14.6083C27.1344 15.2427 24.4156 15.5224 21.6719 14.9911C20.3797 14.7349 19.1203 14.3458 17.8203 14.013H17.8234ZM37.8359 17.0911C38.3625 13.9411 38.6172 10.8411 37.8063 7.75364C37.4266 6.29114 36.7734 4.97395 35.6438 3.93958C34.1125 2.53333 32.2453 2.10676 30.2422 2.10207C27.3328 2.10207 24.575 2.85676 21.8891 3.87864C20.6391 4.34739 19.425 4.82551 18.0625 4.48801C18.0433 4.48646 18.0239 4.48646 18.0047 4.48801C15.8625 4.47708 14.4625 5.67395 14.1594 7.79895C14.0927 8.26478 14.0583 8.73464 14.0563 9.2052C14.0453 11.6849 14.0563 14.1661 14.0563 16.6458V17.1802L15.9313 17.0771V16.4786C15.9313 15.2083 15.9313 13.9396 15.9313 12.6693C15.9313 11.6161 16.5563 11.2427 17.5125 11.6943L17.6203 11.7411C20.775 13.2521 24.0859 13.749 27.5234 13.1286C30.0891 12.6599 32.6328 12.0755 35.1797 11.5458C36.0297 11.3677 36.5047 11.7427 36.5094 12.6021C36.5094 13.9099 36.5094 15.2193 36.5094 16.5271V17.0927L37.8359 17.0911ZM31.8297 32.3427C28.0641 34.538 24.35 34.5036 20.6031 32.3427C20.6031 33.3724 20.5875 34.3271 20.6156 35.2802C20.6494 35.4868 20.7472 35.6776 20.8953 35.8255C22.5172 37.7005 24.1458 39.5672 25.7813 41.4255C25.9172 41.5818 26.0625 41.7271 26.2297 41.9036C28.0734 39.7974 29.8719 37.7443 31.6641 35.6849C31.7533 35.5849 31.8081 35.459 31.8203 35.3255C31.8328 34.363 31.8266 33.3927 31.8266 32.3427H31.8297ZM37.8594 39.8427C36.2719 38.9333 34.7453 38.0474 33.2 37.1958C33.0891 37.1349 32.7781 37.2833 32.6563 37.4193C31.0797 39.1974 29.5203 40.9896 27.9594 42.7786C27.875 42.874 27.8031 42.9818 27.7031 43.1177L32.5703 45.899L37.8594 39.8427ZM19.4641 37.0505L14.5734 39.8536L19.8656 45.9083L24.7547 43.1068L19.4641 37.0505ZM22.075 58.324H30.3281C30.3038 58.2206 30.273 58.1188 30.2359 58.0193C29.3688 56.0583 28.5078 54.0943 27.6141 52.1458C27.5521 52.0525 27.4705 51.9738 27.3749 51.9152C27.2794 51.8567 27.1722 51.8196 27.0609 51.8068C26.5188 51.7615 25.9672 51.8177 25.425 51.7818C25.0469 51.7568 24.8844 51.9099 24.7406 52.2411C23.9734 54.0115 23.1781 55.7708 22.3969 57.5349C22.2922 57.7786 22.1969 58.0286 22.075 58.324ZM23.4281 46.0318C23.9219 47.2724 24.3797 48.449 24.8656 49.6146C24.9076 49.6904 24.9663 49.7557 25.0372 49.8055C25.1081 49.8553 25.1894 49.8883 25.275 49.9021C25.9 49.9333 26.525 49.9286 27.1406 49.9021C27.2186 49.8961 27.2941 49.8725 27.3615 49.833C27.4289 49.7934 27.4864 49.7391 27.5297 49.674C28.0297 48.4755 28.5047 47.2677 29 46.0302C28.1172 45.5208 27.2812 45.0286 26.4328 44.5646C26.3569 44.5368 26.2762 44.5249 26.1955 44.5298C26.1149 44.5346 26.0361 44.556 25.9641 44.5927C25.1234 45.0505 24.3031 45.5302 23.4281 46.0318ZM36.5313 22.6958C37.55 22.8036 38.4734 22.7599 39.0453 21.8052C39.2436 21.4995 39.3418 21.1396 39.3261 20.7756C39.3104 20.4116 39.1817 20.0615 38.9578 19.774C38.3516 18.9161 37.4688 18.9146 36.5313 19.0193V22.6958ZM15.9062 19.0099C14.8516 18.9021 13.9203 18.9693 13.3609 19.9708C13.1754 20.2729 13.0877 20.6251 13.1101 20.9789C13.1325 21.3328 13.2638 21.6711 13.4859 21.9474C14.1 22.7896 14.9766 22.799 15.9062 22.688V19.0099Z"/></g><defs><clipPath id="clip0_1_179"><rect width="52.434" height="60" fill="#fff" transform="translate(0 0.228638)"/></clipPath></defs></svg>