<svg xmlns="http://www.w3.org/2000/svg" width="14" height="18" fill="none" viewBox="0 0 14 18"><path fill="#09121F" d="M0.237785 17.93C0.237785 16.2008 0.924712 14.5424 2.14745 13.3197C3.37019 12.0969 5.02857 11.41 6.75778 11.41C8.487 11.41 10.1454 12.0969 11.3681 13.3197C12.5909 14.5424 13.2778 16.2008 13.2778 17.93H11.6478C11.6478 16.6331 11.1326 15.3893 10.2155 14.4722C9.29848 13.5552 8.05469 13.04 6.75778 13.04C5.46088 13.04 4.21709 13.5552 3.30003 14.4722C2.38298 15.3893 1.86779 16.6331 1.86779 17.93H0.237785ZM6.75778 10.595C4.05606 10.595 1.86779 8.40673 1.86779 5.705C1.86779 3.00328 4.05606 0.815002 6.75778 0.815002C9.45951 0.815002 11.6478 3.00328 11.6478 5.705C11.6478 8.40673 9.45951 10.595 6.75778 10.595ZM6.75778 8.965C8.55893 8.965 10.0178 7.50615 10.0178 5.705C10.0178 3.90385 8.55893 2.445 6.75778 2.445C4.95663 2.445 3.49779 3.90385 3.49779 5.705C3.49779 7.50615 4.95663 8.965 6.75778 8.965Z"/></svg>